<?xml version="1.0" standalone="no"?><!DOCTYPE svg PUBLIC "-//W3C//DTD SVG 1.1//EN" "http://www.w3.org/Graphics/SVG/1.1/DTD/svg11.dtd"><svg t="1718778899555" class="icon" viewBox="0 0 1024 1024" version="1.1" xmlns="http://www.w3.org/2000/svg" p-id="6724" width="256" height="256" xmlns:xlink="http://www.w3.org/1999/xlink"><path d="M512 64C265 64 64 265 64 512s201 448 448 448 448-201 448-448S759 64 512 64z m0 833.1c-212.4 0-385.1-172.8-385.1-385.1S299.6 126.9 512 126.9 897.1 299.7 897.1 512 724.4 897.1 512 897.1z" fill="" p-id="6725"></path><path d="M686.1 566.6L543.4 687.8V268.4c0-17.4-14.1-31.4-31.4-31.4s-31.4 14.1-31.4 31.4v419.4L337.8 566.6c-13.3-11.2-33.1-9.6-44.3 3.7-11.2 13.3-9.6 33.1 3.7 44.3l194.5 165c11.7 10 28.9 10 40.7 0l194.5-165c13.3-11.2 14.9-31.1 3.7-44.3-11.3-13.3-31.2-14.9-44.5-3.7z" fill="" p-id="6726"></path></svg>