<?xml version="1.0" encoding="utf-8"?>
<!-- Generator: Adobe Illustrator 24.3.0, SVG Export Plug-In . SVG Version: 6.00 Build 0)  -->
<svg version="1.1" id="图层_1" xmlns="http://www.w3.org/2000/svg" xmlns:xlink="http://www.w3.org/1999/xlink" x="0px" y="0px"
	 viewBox="0 0 200 200" style="enable-background:new 0 0 200 200;" xml:space="preserve">
<style type="text/css">
	.st0{fill:#7E7E7F;}
</style>
<g id="产品码回溯" transform="translate(-42.667 -42.667)">
	<path id="路径_6059" class="st0" d="M196.9,106v72.4c0,5-4.1,9-9,9c-5,0-9-4.1-9-9V106c0-5,4.1-9,9-9
		C192.9,97,196.9,101,196.9,106z M151.7,106v72.4c0,5-4.1,9-9,9c-5,0-9-4.1-9-9V106c0-5,4.1-9,9-9C147.7,97,151.7,101,151.7,106z
		 M106.5,106v72.4c0,5-4.1,9-9,9c-5,0-9-4.1-9-9V106c0-5,4.1-9,9-9C102.4,97,106.5,101,106.5,106z M228.6,56.3h-43.4
		c-3.9,0.1-7.2-3.1-7.2-7c0-0.1,0-0.1,0-0.2c0-4.5,3.6-6.3,8.1-6.3h49.8c3.6,0,6.4,3,6.4,6.5c0,0.2,0,0.5,0,0.7v49.8
		c0,3.6-3,6.4-6.5,6.4c-0.2,0-0.5,0-0.7,0c-3.7,0.3-6.9-2.4-7.2-6c0-0.4,0-0.8,0-1.2V56.3L228.6,56.3z M56.7,228.2h43.4
		c3.9-0.1,7.2,3.1,7.2,7c0,0.1,0,0.1,0,0.2c0,4.5-3.6,6.3-8.1,6.3H50.4c-3.7,0.3-6.9-2.4-7.2-6c0-0.4,0-0.8,0-1.2v-49.7
		c0-3.6,3-6.4,6.5-6.4c0.2,0,0.5,0,0.7,0c3.7-0.3,6.9,2.4,7.2,6c0,0.4,0,0.8,0,1.2v42.5L56.7,228.2z"/>
	<path id="路径_6060" class="st0" d="M228.6,228.2h-43.4c-3.9-0.1-7.2,3.1-7.2,7c0,0.1,0,0.1,0,0.2c-0.3,3.7,2.4,6.9,6,7.2
		c0.4,0,0.8,0,1.2,0h49.8c3.9,0.1,7.2-3.1,7.2-7c0-0.1,0-0.1,0-0.2v-49.8c0.1-3.9-3.1-7.2-7-7.2c-0.1,0-0.1,0-0.2,0
		c-3.7-0.3-6.9,2.4-7.2,6c0,0.4,0,0.8,0,1.2v42.5L228.6,228.2z M56.7,56.3h43.4c3.4,0.1,6.2-2.6,6.3-6.1c0-0.1,0-0.2,0-0.3
		c0.1-3.9-3.1-7.2-7-7.2c-0.1,0-0.1,0-0.2,0H50.4c-3.7-0.3-6.9,2.4-7.2,6c0,0.4,0,0.8,0,1.2v49.8c0,3.6,3,6.4,6.5,6.4
		c0.2,0,0.5,0,0.7,0c3.7,0.3,6.9-2.4,7.2-6c0-0.4,0-0.8,0-1.2V56.3H56.7z"/>
</g>
</svg>
