<svg xmlns="http://www.w3.org/2000/svg" width="20" height="20.007" viewBox="0 0 20 20.007"><defs><style>.a,.b{fill:#8a8a8a;}.b{font-size:6px;font-family:PingFang SC Bold, PingFang SC;}</style></defs><g transform="translate(-75.087 -341.498)"><g transform="translate(10.688 277.398)"><path class="a" d="M65.111,293.772a.711.711,0,0,1-.711-.711v-2.223a1.737,1.737,0,0,1,.689-1.354A2.331,2.331,0,0,1,66.536,289h4.923a2.326,2.326,0,0,1,1.447.485,1.737,1.737,0,0,1,.689,1.354v1.1a.711.711,0,0,1-1.423,0v-1.1c0-.169-.278-.416-.713-.416H66.536c-.436,0-.713.247-.713.416v2.223A.711.711,0,0,1,65.111,293.772Z" transform="translate(0 -219.87)"/><path class="a" d="M361.423,401.692H350.711a.711.711,0,1,1,0-1.423h10.711c.436,0,.714-.247.714-.416v-9.015c0-.169-.278-.416-.714-.416h-9.286a.711.711,0,1,1,0-1.423h9.286a2.326,2.326,0,0,1,1.447.485,1.737,1.737,0,0,1,.689,1.354v9.013a1.737,1.737,0,0,1-.689,1.354A2.333,2.333,0,0,1,361.423,401.692Z" transform="translate(-279.159 -317.585)"/><path class="a" d="M71.459,451.265H66.536a2.326,2.326,0,0,1-1.447-.485,1.737,1.737,0,0,1-.689-1.354v-9.015a.711.711,0,1,1,1.423,0v9.013c0,.169.278.416.713.416h4.923a.712.712,0,0,1,0,1.425Z" transform="translate(0 -367.158)"/><path class="a" d="M142.863,166.766h-1.423v-4.543H129.323v2.1H127.9v-2.543a.978.978,0,0,1,.978-.978h13.007a.978.978,0,0,1,.978.978Z" transform="translate(-62.089 -94.551)"/><path class="a" d="M239.925,72.071H238.5V65.523h-12.08v1.654H225v-2.1a.978.978,0,0,1,.978-.978h12.97a.978.978,0,0,1,.978.978Z" transform="translate(-156.937)"/></g><text class="b" transform="translate(78 357)"><tspan x="0" y="0">BOM</tspan></text></g></svg>