<?xml version="1.0" standalone="no"?><!DOCTYPE svg PUBLIC "-//W3C//DTD SVG 1.1//EN" "http://www.w3.org/Graphics/SVG/1.1/DTD/svg11.dtd"><svg t="1722337663394" class="icon" viewBox="0 0 1024 1024" version="1.1" xmlns="http://www.w3.org/2000/svg" p-id="2341" xmlns:xlink="http://www.w3.org/1999/xlink" width="256" height="256"><path d="M743.366 548.509C843.68 548.509 925 629.879 925 730.254 925 830.63 843.68 912 743.366 912S561.73 830.63 561.73 730.254c0-100.375 81.32-181.745 181.635-181.745zM682.244 116c96.274 0 174.502 77.312 176.057 173.275l0.023 2.913v198.806c0 16.518-13.382 29.908-29.89 29.908-16.27 0-29.505-13.01-29.88-29.202l-0.008-0.706V292.188c0-63.628-51.034-115.33-114.38-116.357l-1.922-0.016H271.08c-63.59 0-115.26 51.065-116.287 114.449l-0.016 1.924v411.415c0 63.629 51.034 115.33 114.38 116.358l1.923 0.016h241.634c16.507 0 29.889 13.39 29.889 29.907 0 16.282-13.002 29.525-29.184 29.9l-0.705 0.008H271.08c-96.275 0-174.502-77.313-176.057-173.275L95 703.603V292.188c0-96.333 77.265-174.609 173.169-176.164l2.912-0.024h411.163z m61.122 478.52c-74.918 0-135.651 60.77-135.651 135.734s60.733 135.734 135.65 135.734c74.919 0 135.652-60.77 135.652-135.734S818.284 594.52 743.366 594.52z m5.546 41.41c7.618 0 13.795 6.177 13.795 13.796l-0.001 130.147 33.761-34.568 0.253-0.253c5.525-5.386 14.369-5.407 19.92 0.015 0.08 0.078 0.16 0.157 0.238 0.238 5.675 5.81 5.675 15.087 0 20.898l-55.351 56.675a14.991 14.991 0 0 1-2.366 2.992 14.222 14.222 0 0 1-10.25 4.057 14.222 14.222 0 0 1-10.487-4.295 14.991 14.991 0 0 1-2.13-2.757l-55.349-56.672c-5.675-5.81-5.675-15.088 0-20.898 0.079-0.08 0.158-0.16 0.238-0.238 5.636-5.505 14.668-5.399 20.173 0.238l33.76 34.568V649.726c0-7.62 6.177-13.795 13.796-13.795zM530.643 518.54c16.507 0 29.89 13.39 29.89 29.908 0 16.281-13.003 29.524-29.184 29.899l-0.706 0.008h-277c-16.508 0-29.89-13.39-29.89-29.907 0-16.282 13.003-29.525 29.184-29.9l0.706-0.008h277z m153.723-233.448c16.508 0 29.89 13.39 29.89 29.908 0 16.281-13.003 29.524-29.184 29.9l-0.706 0.008H253.643c-16.508 0-29.89-13.39-29.89-29.908 0-16.281 13.003-29.524 29.184-29.9l0.706-0.008h430.723z" fill="#333333" p-id="2342"></path></svg>