<?xml version="1.0" standalone="no"?><!DOCTYPE svg PUBLIC "-//W3C//DTD SVG 1.1//EN" "http://www.w3.org/Graphics/SVG/1.1/DTD/svg11.dtd"><svg t="1690360901630" class="icon" viewBox="0 0 1024 1024" version="1.1" xmlns="http://www.w3.org/2000/svg" p-id="38209" width="200" height="200" xmlns:xlink="http://www.w3.org/1999/xlink"><path d="M411.51146667 813.4656c27.8528 0 50.24426667-22.39146667 50.24426666-50.24426667V461.75573333c0-27.8528-22.39146667-50.24426667-50.24426666-50.24426666s-50.24426667 22.39146667-50.24426667 50.24426666V763.22133333c0 27.8528 22.39146667 50.24426667 50.24426667 50.24426667z m502.44266666-602.9312h-200.97706666v-50.24426667c0-83.01226667-67.72053333-150.7328-150.7328-150.7328H461.75573333C378.74346667 9.55733333 311.02293333 77.27786667 311.02293333 160.29013333v50.24426667H110.04586667c-27.8528 0-50.24426667 22.39146667-50.24426667 50.24426667s22.39146667 50.24426667 50.24426667 50.24426666h50.24426666v552.68693334c0 83.01226667 67.72053333 150.7328 150.7328 150.7328h401.95413334c83.01226667 0 150.7328-67.72053333 150.7328-150.7328V311.02293333h50.24426666c27.8528 0 50.24426667-22.39146667 50.24426667-50.24426666s-22.39146667-50.24426667-50.24426667-50.24426667z m-502.44266666-50.24426667c0-27.8528 22.39146667-50.24426667 50.24426666-50.24426666h100.48853334c27.8528 0 50.24426667 22.39146667 50.24426666 50.24426666v50.24426667H411.51146667v-50.24426667zM763.22133333 863.70986667c0 27.8528-22.39146667 50.24426667-50.24426666 50.24426666H311.02293333c-27.8528 0-50.24426667-22.39146667-50.24426666-50.24426666V311.02293333h502.44266666v552.68693334z m-150.7328-50.24426667c27.8528 0 50.24426667-22.39146667 50.24426667-50.24426667V461.75573333c0-27.8528-22.39146667-50.24426667-50.24426667-50.24426666s-50.24426667 22.39146667-50.24426666 50.24426666V763.22133333c0 27.8528 22.39146667 50.24426667 50.24426666 50.24426667z" fill="#7E7E7F" p-id="38210"></path></svg>