<?xml version="1.0" encoding="utf-8"?>
<!-- Generator: Adobe Illustrator 24.3.0, SVG Export Plug-In . SVG Version: 6.00 Build 0)  -->
<svg version="1.1" id="图层_1" xmlns="http://www.w3.org/2000/svg" xmlns:xlink="http://www.w3.org/1999/xlink" x="0px" y="0px"
	 viewBox="0 0 200 200" style="enable-background:new 0 0 200 200;" xml:space="preserve">
<style type="text/css">
	.st0{fill:#7E7E7F;}
</style>
<g id="组_12191" transform="translate(-2753.061 -1109.367)">
	<g id="组_12192" transform="translate(0 -67)">
		<g id="路径_6069">
			<path class="st0" d="M2789.6,1227.6c-0.1,0.8,0.1,1.6,0.4,2.4c0.3,0.7,0.7,1.3,1.1,1.8c0.6,0.6,1.4,1,2.3,1.2
				c1,0.3,1.9,0.4,2.9,0.4c0.6,0,1.3-0.1,1.9-0.2c0.7-0.1,1.3-0.3,1.9-0.7c0.6-0.3,1.1-0.7,1.5-1.2c0.4-0.6,0.7-1.3,0.6-2
				c0-0.7-0.2-1.5-0.6-2.1c-0.5-0.6-1.1-1-1.8-1.3c-1-0.4-2-0.8-3-1c-1.2-0.3-2.6-0.6-4.2-1c-1.4-0.3-2.9-0.7-4.2-1.2
				c-1.3-0.5-2.5-1.1-3.5-1.9c-1.1-0.8-1.9-1.9-2.5-3.1c-0.6-1.5-0.9-3.1-0.9-4.8c-0.1-2.4,0.5-4.7,1.8-6.7c1.2-1.8,2.8-3.2,4.7-4.2
				c2-1.1,4.1-1.8,6.3-2.2c2.2-0.4,4.4-0.6,6.7-0.6c2.1,0,4.1,0.2,6.2,0.6c1.9,0.3,3.8,1,5.5,2.1c1.6,1,2.9,2.4,3.8,4
				c1,2,1.4,4.2,1.2,6.4h-12c0.2-1.3-0.2-2.5-1-3.5c-0.5-0.5-1.1-0.9-1.8-1.1c-0.7-0.2-1.5-0.3-2.2-0.4c-0.7,0-1.4,0.1-2.1,0.2
				c-0.7,0.1-1.3,0.3-1.9,0.6c-0.6,0.3-1.1,0.7-1.4,1.2c-0.4,0.5-0.6,1.2-0.5,1.8c0,0.7,0.2,1.3,0.7,1.8c0.6,0.5,1.2,0.9,1.9,1.2
				c1,0.3,1.9,0.6,2.9,0.8c1.1,0.2,2.2,0.5,3.4,0.8c1.9,0.5,3.5,1,5,1.5c1.3,0.5,2.6,1.1,3.7,2c1,0.8,1.8,1.9,2.3,3.2
				c0.6,1.6,0.8,3.2,0.8,4.9c0.1,2.6-0.6,5.3-1.9,7.5c-1.2,1.9-2.9,3.4-4.9,4.4c-2.1,1.1-4.3,1.8-6.7,2.1c-2.4,0.4-4.8,0.6-7.2,0.6
				c-2.4,0-4.7-0.2-7-0.8c-1.9-0.5-3.7-1.3-5.3-2.5c-1.5-1.2-2.7-2.7-3.4-4.4c-0.9-2.1-1.4-4.4-1.4-6.7H2789.6z M2842.5,1231.9
				c1.6,0,3.2-0.5,4.6-1.4c1.3-0.9,2.3-2.2,3.1-3.5c0.8-1.5,1.4-3,1.8-4.7c0.4-1.6,0.6-3.2,0.6-4.8c0-0.9-0.1-1.9-0.2-2.8
				c-0.1-0.9-0.5-1.8-1-2.6c-0.5-0.8-1.3-1.5-2.1-1.9c-1.1-0.6-2.4-0.8-3.6-0.8c-1.6,0-3.2,0.5-4.5,1.4c-1.3,1-2.3,2.2-3.1,3.7
				c-0.8,1.5-1.4,3.1-1.8,4.8c-0.3,1.6-0.5,3.2-0.5,4.7c0,2,0.5,3.9,1.6,5.5C2838.4,1231.2,2840.4,1232,2842.5,1231.9L2842.5,1231.9
				z M2827.2,1200.4h12.8l-1,4.7h0.2c1.3-1.8,3.1-3.3,5.1-4.4c2.2-1.1,4.6-1.6,7-1.5c2.3-0.1,4.5,0.4,6.5,1.4
				c1.8,0.9,3.3,2.3,4.5,3.9c1.2,1.7,2.1,3.6,2.6,5.6c0.6,2.2,0.8,4.4,0.8,6.7c0,3-0.5,6-1.3,9c-0.8,2.9-2.1,5.7-3.9,8.1
				c-1.7,2.4-3.9,4.4-6.5,5.8c-2.8,1.6-5.9,2.3-9.1,2.3c-2.4,0.1-4.8-0.4-7-1.4c-2.1-1.1-3.8-2.8-4.8-5h-0.2l-3.8,18.8H2816
				L2827.2,1200.4z M2899.2,1215.1c0.1-1.7-0.5-3.4-1.6-4.6c-1.2-1-2.7-1.6-4.3-1.6c-1.7-0.1-3.4,0.3-4.9,1.2
				c-1.3,0.9-2.4,2-3.1,3.4c-0.8,1.4-1.4,3-1.7,4.6c-0.3,1.6-0.5,3.2-0.5,4.9c-0.1,2.4,0.4,4.8,1.7,6.8c1.1,1.6,3,2.5,5,2.4
				c1.9,0.1,3.7-0.6,5.1-1.9c1.3-1.4,2.2-3.1,2.6-5h12.8c-0.5,2.6-1.5,5.2-2.8,7.5c-1.2,2-2.8,3.7-4.6,5.1c-1.8,1.4-3.9,2.4-6.2,3
				c-2.4,0.7-4.9,1-7.4,1c-2.6,0-5.3-0.3-7.8-1.1c-2.2-0.7-4.3-1.8-6.2-3.3c-1.8-1.5-3.2-3.4-4-5.5c-1-2.5-1.5-5.1-1.4-7.8
				c0-3.4,0.6-6.7,1.8-9.9c1.1-3,2.7-5.7,4.9-8c2.1-2.3,4.7-4.1,7.6-5.3c3.2-1.3,6.5-2,10-1.9c2.4,0,4.8,0.3,7.1,1
				c2.1,0.6,4,1.6,5.8,2.9c1.7,1.3,3,3,3.9,4.9c1,2.2,1.5,4.6,1.4,7L2899.2,1215.1z"/>
		</g>
		<g id="icon">
			<path class="st0" d="M2899,1296.5L2899,1296.5z M2791.4,1306.9l-6.1-7.5l45-29l38.2,21.1l37.5-27.8l6.7,7.1l-43.3,32.1
				l-38.6-21.4L2791.4,1306.9z M2887.6,1254.6l40-0.7l-9,34.6"/>
		</g>
		<g id="icon-2" transform="translate(2712.203 1111.752)">
			<g id="路径_6065">
				<path class="st0" d="M131.1,245.9H63.6c-8.9,0.3-16.4-6.7-16.7-15.6c0-0.1,0-0.2,0-0.3V80.4c0.4-8.9,7.7-16,16.7-15.9h135.7
					c8.9-0.3,16.4,6.7,16.7,15.6c0,0.1,0,0.2,0,0.3v48.3c-0.1,3.5-3.1,6.2-6.6,6.1c-3.3-0.1-6-2.8-6.1-6.1V80.4
					c0-2.1-1.7-3.8-3.8-3.8c-0.1,0-0.1,0-0.2,0H63.6c-2.1,0.1-3.8,1.7-4,3.8V230c0,2.1,1.7,3.8,3.8,3.8c0.1,0,0.1,0,0.2,0h67.5
					c3.3-0.2,6.2,2.4,6.4,5.7s-2.4,6.2-5.7,6.4C131.6,245.9,131.3,245.9,131.1,245.9z"/>
			</g>
		</g>
	</g>
	<g id="icon-3">
		<path class="st0" d="M2945.5,1301.7l-19.7-19.7c-0.4-0.4-0.8-0.7-1.3-0.9c9-12.5,6.2-30-6.3-39c-12.5-9-30-6.2-39,6.3
			s-6.2,30,6.3,39c10,7.2,23.5,7,33.3-0.5c0.2,0.5,0.5,0.9,0.9,1.3l19.7,19.7c1.6,1.7,4.4,1.7,6,0.1c0,0,0,0,0.1-0.1
			C2947.2,1306.2,2947.2,1303.5,2945.5,1301.7L2945.5,1301.7z M2901.7,1286.9c-12.6,0-22.9-10.2-22.9-22.9
			c0-12.6,10.2-22.9,22.9-22.9s22.9,10.2,22.9,22.9c0,0,0,0.1,0,0.1C2924.5,1276.7,2914.3,1286.9,2901.7,1286.9z"/>
		<path class="st0" d="M2942.5,1311.7C2942.5,1311.7,2942.4,1311.7,2942.5,1311.7c-1.9,0-3.5-0.7-4.8-2l-19.3-19.3
			c-10.5,6.8-23.9,6.6-34.2-0.8c-13.6-9.8-16.7-28.8-6.9-42.4c9.8-13.6,28.8-16.7,42.4-6.9c12.9,9.3,16.4,27,8.2,40.4l20.1,20.1v0.1
			c1.9,2.6,1.7,6.3-0.6,8.7l-0.1,0.1C2945.9,1311,2944.3,1311.7,2942.5,1311.7z M2919.8,1283.3l1.3,2.7c0.1,0.2,0.3,0.4,0.4,0.6
			l19.6,19.6c0.4,0.4,0.8,0.6,1.3,0.6c0.5,0,1-0.2,1.3-0.5c0.8-0.8,0.7-2,0-2.8l-19.7-19.7c-0.2-0.2-0.4-0.3-0.6-0.4l-2.6-1.3
			l1.7-2.3c5.6-7.8,6.2-17.8,2.3-26c1.4,3.2,2.1,6.6,2.1,10.2c0,14-11.4,25.3-25.3,25.4h0c0,0,0,0,0,0c-6.8,0-13.1-2.6-17.9-7.4
			c-3.8-3.8-6.3-8.6-7.1-13.8c0.9,6.7,4.4,13.1,10.4,17.4c9.2,6.6,21.4,6.4,30.4-0.5L2919.8,1283.3z M2901.6,1243.6
			C2901.6,1243.6,2901.6,1243.6,2901.6,1243.6c-5.5,0-10.6,2.1-14.5,6s-6,9-6,14.5c0,5.5,2.1,10.6,6,14.5c3.9,3.9,9,6,14.4,6
			c0,0,0,0,0,0c11.2,0,20.4-9.2,20.4-20.4c0-5.5-2.1-10.7-6-14.5C2912.2,1245.7,2907.1,1243.6,2901.6,1243.6z"/>
	</g>
</g>
</svg>
