<svg xmlns="http://www.w3.org/2000/svg" width="19.969" height="20" viewBox="0 0 19.969 20">
  <path id="icon" d="M15.618,21.363a.711.711,0,0,0-.251.047,8.534,8.534,0,0,1-7.912-1.931L8.49,18.443l-3.783-.628.628,3.8L6.4,20.547A9.929,9.929,0,0,0,13.184,23.2a10.228,10.228,0,0,0,2.606-.345.756.756,0,0,0-.173-1.491ZM4.99,15.508a1.212,1.212,0,0,0-.031-.235A8.423,8.423,0,0,1,6.826,7.564l1,1,.628-3.783-3.8.628,1.1,1.1A9.93,9.93,0,0,0,3.2,13.184a10.069,10.069,0,0,0,.314,2.5.74.74,0,0,0,.722.565A.751.751,0,0,0,4.99,15.508Zm18.179-2.323a10.228,10.228,0,0,0-.345-2.606.752.752,0,0,0-1.476.2.651.651,0,0,0,.047.251,8.342,8.342,0,0,1,.283,2.151A8.5,8.5,0,0,1,19.5,18.867l-1.02-1-.628,3.783,3.8-.628-1.1-1.083a9.986,9.986,0,0,0,2.622-6.75Zm-1.6-4.694-.628-3.8L19.872,5.759A10,10,0,0,0,13.184,3.2a10.2,10.2,0,0,0-2.512.314.68.68,0,0,0-.078.016.745.745,0,0,0-.518.706.754.754,0,0,0,.754.754.788.788,0,0,0,.188-.031,8.284,8.284,0,0,1,2.166-.283A8.448,8.448,0,0,1,18.82,6.811L17.784,7.847Zm-5.259,4.9a.353.353,0,0,1,0-.424l.738-.895-.078-.2-.094-.2a2.308,2.308,0,0,0-.188-.392,1.9,1.9,0,0,0-.377-.549l-.141-.126-1.13.157a.392.392,0,0,1-.392-.251l-.361-1.036-.22-.047a3.862,3.862,0,0,0-1.7,0l-.188.031-.392,1.068a.383.383,0,0,1-.361.22h-.031l-1.115-.188-.157.157a4.028,4.028,0,0,0-.691,1.209l-.078.188.738.895a.33.33,0,0,1,0,.408l-.769.863.078.188a2.486,2.486,0,0,0,.3.691,2.359,2.359,0,0,0,.361.518l.141.141,1.162-.188a.34.34,0,0,1,.361.22L12.1,16.9l.22.031a4,4,0,0,0,1.727,0l.188-.047.392-1.1a.36.36,0,0,1,.361-.22l1.13.188.157-.141a3.656,3.656,0,0,0,.675-1.177l.078-.188ZM13.216,14.8a1.617,1.617,0,1,1,1.617-1.617A1.615,1.615,0,0,1,13.216,14.8Z" transform="translate(-3.2 -3.2)" fill="#8a8a8a"/>
</svg>
