<svg xmlns="http://www.w3.org/2000/svg" width="20" height="20" viewBox="0 0 20 20"><defs><style>.a{fill:#8a8a8a;}</style></defs><path class="a" d="M6.667,9.21h6.667A1.177,1.177,0,0,0,14.51,8.033V1.366A1.177,1.177,0,0,0,13.333.19H6.667A1.176,1.176,0,0,0,5.49,1.366V8.033A1.177,1.177,0,0,0,6.667,9.21Zm0-7.843h6.667V8.033H6.667V1.366Zm12.157,9.8H12.157a1.177,1.177,0,0,0-1.177,1.177v6.667a1.177,1.177,0,0,0,1.177,1.177h6.667A1.176,1.176,0,0,0,20,19.014V12.347a1.177,1.177,0,0,0-1.177-1.177Zm0,7.843H12.157V12.347h6.667v6.667ZM7.843,11.17H1.176A1.177,1.177,0,0,0,0,12.347v6.667A1.176,1.176,0,0,0,1.176,20.19H7.843A1.176,1.176,0,0,0,9.02,19.014V12.347A1.176,1.176,0,0,0,7.843,11.17Zm0,7.843H1.176V12.347H7.843v6.667Zm4.51-15.686a.52.52,0,0,1-.588.588H8.235a.52.52,0,0,1-.588-.588.52.52,0,0,1,.588-.588h3.53A.52.52,0,0,1,12.353,3.327ZM2.157,14.308a.52.52,0,0,1,.588-.588h3.53a.52.52,0,0,1,.588.588.52.52,0,0,1-.588.588H2.745a.52.52,0,0,1-.588-.588Zm10.981,0a.52.52,0,0,1,.588-.588h3.529a.52.52,0,0,1,.588.588.52.52,0,0,1-.588.588H13.726A.52.52,0,0,1,13.137,14.308Z" transform="translate(0 -0.19)"/></svg>