<?xml version="1.0" standalone="no"?><!DOCTYPE svg PUBLIC "-//W3C//DTD SVG 1.1//EN" "http://www.w3.org/Graphics/SVG/1.1/DTD/svg11.dtd"><svg t="1690359821334" class="icon" viewBox="0 0 1024 1024" version="1.1" xmlns="http://www.w3.org/2000/svg" p-id="25852" xmlns:xlink="http://www.w3.org/1999/xlink" width="200" height="200"><path d="M341.254668 853.429267a85.253388 85.253388 0 1 0 85.253389 85.253389 85.253388 85.253388 0 0 0-85.253389-85.253389z m0-426.394853A85.253388 85.253388 0 1 0 426.572013 512.351758a85.253388 85.253388 0 0 0-85.317345-85.253388z m0-426.394854a85.253388 85.253388 0 1 0 85.253389 85.253389A85.253388 85.253388 0 0 0 341.254668 0.703516z m341.07751 852.725751A85.253388 85.253388 0 1 0 767.649522 938.746612a85.253388 85.253388 0 0 0-85.253388-85.317345z m0-426.394853A85.253388 85.253388 0 1 0 767.649522 512.351758a85.253388 85.253388 0 0 0-85.253388-85.253388z m0-426.394854A85.253388 85.253388 0 1 0 767.649522 85.956905 85.253388 85.253388 0 0 0 682.396134 0.703516z" p-id="25853" fill="#B5B5B5"></path></svg>