<?xml version="1.0" encoding="utf-8"?>
<!-- Generator: Adobe Illustrator 24.3.0, SVG Export Plug-In . SVG Version: 6.00 Build 0)  -->
<svg version="1.1" id="图层_1" xmlns="http://www.w3.org/2000/svg" xmlns:xlink="http://www.w3.org/1999/xlink" x="0px" y="0px"
	 viewBox="0 0 191.6 200" style="enable-background:new 0 0 191.6 200;" xml:space="preserve">
<style type="text/css">
	.st0{fill:#7E7E7F;}
	.st1{fill:#6F7071;}
</style>
<g id="组_12198" transform="translate(-3201.061 -993.367)">
	<g id="组_12192" transform="translate(448 -116)">
		<g id="组_12192-2" transform="translate(0 -67)">
			<path id="路径_6068" class="st0" d="M2786.8,1233c-0.1,0.9,0.1,1.8,0.4,2.7c0.3,0.7,0.7,1.4,1.2,2c0.7,0.6,1.6,1.1,2.5,1.4
				c1,0.3,2.1,0.4,3.2,0.4c0.7,0,1.4-0.1,2.1-0.2c0.7-0.1,1.5-0.4,2.1-0.7c0.6-0.3,1.2-0.8,1.7-1.4c0.5-0.6,0.7-1.4,0.7-2.2
				c0-0.8-0.2-1.6-0.6-2.3c-0.5-0.6-1.2-1.1-2-1.4c-1.1-0.5-2.2-0.8-3.3-1.1c-1.3-0.3-2.9-0.6-4.7-1.1c-1.6-0.3-3.2-0.8-4.7-1.3
				c-1.4-0.5-2.7-1.2-3.9-2.1c-1.2-0.9-2.1-2.1-2.7-3.4c-0.7-1.7-1-3.5-1-5.3c-0.1-2.6,0.6-5.2,2-7.4c1.3-1.9,3.1-3.5,5.2-4.6
				c2.2-1.2,4.5-2,7-2.4c2.4-0.5,4.9-0.7,7.4-0.7c2.3,0,4.5,0.2,6.8,0.6c2.1,0.4,4.2,1.2,6.1,2.3c1.8,1.1,3.2,2.6,4.2,4.4
				c1.1,2.2,1.5,4.6,1.3,7.1h-13.2c0.2-1.4-0.2-2.8-1.1-3.9c-0.5-0.6-1.2-1-2-1.2c-0.8-0.3-1.6-0.4-2.4-0.4c-0.8,0-1.5,0.1-2.3,0.2
				c-0.7,0.1-1.5,0.4-2.1,0.7c-0.6,0.3-1.2,0.7-1.6,1.3c-0.4,0.6-0.6,1.3-0.6,2c0,0.7,0.3,1.5,0.8,2c0.6,0.6,1.4,1,2.1,1.3
				c1,0.4,2.1,0.7,3.2,0.9c1.2,0.3,2.5,0.6,3.8,0.9c2.1,0.5,3.9,1.1,5.5,1.6c1.5,0.5,2.9,1.3,4.1,2.2c1.1,0.9,2,2.1,2.5,3.5
				c0.6,1.7,0.9,3.5,0.9,5.4c0.1,2.9-0.6,5.8-2.1,8.3c-1.4,2.1-3.2,3.7-5.4,4.9c-2.3,1.2-4.8,2-7.3,2.4c-2.6,0.4-5.3,0.6-8,0.6
				c-2.6,0-5.2-0.3-7.8-0.9c-2.1-0.5-4.1-1.4-5.9-2.7c-1.6-1.3-2.9-3-3.8-4.9c-1-2.3-1.6-4.8-1.6-7.4H2786.8z M2845,1237.7
				c1.8,0,3.6-0.5,5-1.5c1.4-1,2.6-2.4,3.4-3.9c0.9-1.6,1.6-3.3,1.9-5.2c0.4-1.7,0.6-3.5,0.6-5.3c0-1-0.1-2-0.3-3
				c-0.2-1-0.5-2-1.1-2.9c-0.6-0.9-1.4-1.6-2.3-2.1c-1.2-0.6-2.6-0.9-4-0.9c-1.8-0.1-3.5,0.5-5,1.6c-1.4,1.1-2.6,2.5-3.4,4
				c-0.9,1.7-1.5,3.4-1.9,5.3c-0.4,1.7-0.6,3.5-0.6,5.2c-0.1,2.2,0.5,4.3,1.7,6.1C2840.6,1236.9,2842.8,1237.9,2845,1237.7
				L2845,1237.7z M2828.2,1203h14.2l-1.1,5.2h0.2c1.5-2,3.4-3.7,5.6-4.9c2.4-1.2,5.1-1.7,7.7-1.6c2.5-0.1,5,0.5,7.2,1.6
				c2,1,3.6,2.5,4.9,4.3c1.3,1.8,2.3,3.9,2.8,6.1c0.6,2.4,0.9,4.9,0.9,7.3c0,3.3-0.5,6.7-1.5,9.9c-0.9,3.2-2.4,6.2-4.3,9
				c-1.9,2.6-4.3,4.8-7.2,6.4c-3.1,1.7-6.5,2.6-10,2.5c-2.6,0.1-5.3-0.5-7.7-1.5c-2.3-1.2-4.2-3.1-5.3-5.5h-0.2l-4.2,20.7h-14.6
				L2828.2,1203z M2907.6,1219.2c0.1-1.9-0.5-3.7-1.8-5.1c-1.3-1.1-3-1.7-4.7-1.7c-1.9-0.1-3.8,0.3-5.4,1.3
				c-1.4,0.9-2.6,2.2-3.4,3.7c-0.9,1.6-1.5,3.3-1.8,5.1c-0.4,1.8-0.6,3.6-0.6,5.4c-0.2,2.6,0.5,5.2,1.8,7.5c1.3,1.8,3.4,2.8,5.5,2.7
				c2.1,0.1,4.1-0.6,5.6-2.1c1.5-1.5,2.5-3.4,2.9-5.5h14.1c-0.6,2.9-1.6,5.7-3.1,8.2c-1.3,2.2-3.1,4.1-5.1,5.7
				c-2,1.5-4.3,2.6-6.8,3.3c-2.7,0.7-5.4,1.1-8.2,1.1c-2.9,0-5.8-0.4-8.6-1.2c-2.5-0.7-4.8-2-6.8-3.6c-1.9-1.6-3.5-3.7-4.5-6.1
				c-1.1-2.7-1.7-5.6-1.6-8.6c0-3.7,0.6-7.4,1.9-10.9c1.2-3.3,3-6.2,5.4-8.8c2.3-2.5,5.2-4.5,8.3-5.8c3.5-1.5,7.2-2.2,11-2.1
				c2.7,0,5.3,0.3,7.9,1.1c2.3,0.7,4.5,1.7,6.4,3.2c1.8,1.5,3.3,3.3,4.3,5.5c1.1,2.4,1.6,5.1,1.5,7.8L2907.6,1219.2z"/>
			<path id="icon" class="st0" d="M2907.4,1309L2907.4,1309z M2788.7,1320.4l-6.8-8.2l49.6-32l42.1,23.3l41.4-30.7l7.4,7.8
				l-47.8,35.4l-42.5-23.6L2788.7,1320.4z M2894.7,1262.7l44.1-0.8l-9.9,38.1"/>
			<g id="icon-2" transform="translate(2712.203 1111.752)">
				<path id="路径_6065" class="st0" d="M133.7,264.6H59.3c-9.8,0.3-18-7.3-18.4-17.2c0-0.1,0-0.2,0-0.4V82.1
					c0.4-9.9,8.5-17.6,18.4-17.5h149.7c9.8-0.3,18.1,7.4,18.4,17.2c0,0.1,0,0.2,0,0.3v53.2c-0.2,3.9-3.4,6.9-7.3,6.7
					c-3.7-0.1-6.6-3.1-6.7-6.7V82.1c0-2.3-1.9-4.2-4.2-4.2c-0.1,0-0.1,0-0.2,0H59.3c-2.3,0.1-4.2,1.9-4.4,4.2v165
					c0,2.3,1.9,4.2,4.2,4.2c0.1,0,0.1,0,0.2,0h74.5c3.7-0.2,6.8,2.6,7,6.3c0.2,3.7-2.6,6.8-6.3,7C134.2,264.6,134,264.6,133.7,264.6
					z"/>
			</g>
		</g>
	</g>
	<g id="icon-3" transform="translate(3085.317 858.952)">
		<path id="路径_6067" class="st1" d="M286.4,264.9h20.9v69.5h-20.9V264.9z M258.6,285.7h20.9v48.7h-20.9V285.7z M230.8,306.6
			h20.9v27.8h-20.8L230.8,306.6z"/>
	</g>
</g>
</svg>
