<svg xmlns="http://www.w3.org/2000/svg" width="18" height="17.278" viewBox="0 0 18 17.278"><defs><style>.a{fill:#8a8a8a;}</style></defs><path class="a" d="M57.65,63.636a3.225,3.225,0,1,1-3.225-3.225A3.225,3.225,0,0,1,57.65,63.636Zm-3.225,1.677a1.677,1.677,0,1,0-1.636-1.677A1.677,1.677,0,0,0,54.425,65.312ZM60.17,57.65a3.226,3.226,0,1,1,3.148-3.225A3.226,3.226,0,0,1,60.17,57.65Zm0-4.9a1.677,1.677,0,1,0,1.636,1.676,1.677,1.677,0,0,0-1.636-1.676Zm5.805,7.663a3.225,3.225,0,1,1-3.225,3.225A3.225,3.225,0,0,1,65.975,60.41Zm0,4.9a1.677,1.677,0,1,0-1.636-1.677A1.677,1.677,0,0,0,65.975,65.312Zm.258-5.4a6.134,6.134,0,0,0-2.578-4.151,3.731,3.731,0,0,0,.232-1.677A7.679,7.679,0,0,1,67.835,60.4a3.692,3.692,0,0,0-1.6-.486ZM63.2,66.129a3.738,3.738,0,0,0,1.37.963,7.677,7.677,0,0,1-8.772.017,3.736,3.736,0,0,0,1.386-.956,6.139,6.139,0,0,0,6.016-.024ZM56.685,55.763a6.117,6.117,0,0,0-2.578,4.155,3.717,3.717,0,0,0-1.6.518,7.676,7.676,0,0,1,3.949-6.351,3.731,3.731,0,0,0,.232,1.677Zm5.672,4.412h.5a.306.306,0,0,1,.269.338v.572a.332.332,0,0,1-.269.337h-.5a2.445,2.445,0,0,1-.2.471l.37.337a.307.307,0,0,1,0,.4l-.4.4a.307.307,0,0,1-.405,0l-.336-.371a1.754,1.754,0,0,1-.472.2v.506a.332.332,0,0,1-.336.3H60a.332.332,0,0,1-.337-.3v-.5a2.443,2.443,0,0,1-.471-.2l-.337.37a.307.307,0,0,1-.4,0l-.4-.4a.307.307,0,0,1,0-.405l.371-.336a2.445,2.445,0,0,1-.2-.472h-.5a.305.305,0,0,1-.27-.336v-.573a.332.332,0,0,1,.269-.337h.506a2.443,2.443,0,0,1,.2-.471l-.37-.337a.307.307,0,0,1,0-.4l.4-.4a.307.307,0,0,1,.405,0l.336.371a1.741,1.741,0,0,1,.472-.2v-.506a.332.332,0,0,1,.336-.3h.573a.332.332,0,0,1,.337.3v.5a2.443,2.443,0,0,1,.471.2l.337-.37a.307.307,0,0,1,.4,0l.4.4a.307.307,0,0,1,0,.405l-.371.336a2.353,2.353,0,0,1,.2.472Zm-3.065.44a1,1,0,0,0,1.01,1.01,1.015,1.015,0,0,0,1.01-1.01A1,1,0,0,0,60.3,59.6.985.985,0,0,0,59.292,60.614Z" transform="translate(-51.2 -51.199)"/></svg>