<svg xmlns="http://www.w3.org/2000/svg" width="18" height="17.388" viewBox="0 0 18 17.388"><defs><style>.a{fill:#8a8a8a;}</style></defs><path class="a" d="M523.813,556.077l1.426,2.468-1.426,2.468h-2.851l-1.425-2.468,1.425-2.468h2.851m.814-1.41h-4.479l-2.24,3.878,2.24,3.878h4.479l2.24-3.878Z" transform="translate(-508.868 -545.035)"/><path class="a" d="M705.133,705.474m-1.41,0a1.41,1.41,0,1,0,1.41-1.41A1.41,1.41,0,0,0,703.723,705.474Z" transform="translate(-691.712 -691.963)"/><path class="a" d="M6.453,1.41V6.346H1.518V1.41H6.453M7.864,0H.107V7.756H7.864Z" transform="translate(-0.106)"/><path class="a" d="M6.346,555.693v4.936H1.41v-4.936H6.346m1.41-1.41H0v7.756H7.756Z" transform="translate(0 -544.657)"/><path class="a" d="M560.629,1.41V6.346h-4.936V1.41h4.936M562.04,0h-7.756V7.756h7.756Z" transform="translate(-544.641)"/></svg>