<?xml version="1.0" standalone="no"?><!DOCTYPE svg PUBLIC "-//W3C//DTD SVG 1.1//EN" "http://www.w3.org/Graphics/SVG/1.1/DTD/svg11.dtd"><svg t="1722235922005" class="icon" viewBox="0 0 1024 1024" version="1.1" xmlns="http://www.w3.org/2000/svg" p-id="2552" xmlns:xlink="http://www.w3.org/1999/xlink" width="256" height="256"><path d="M837.864727 560.593455l-14.289454 46.754909a324.724364 324.724364 0 0 1-23.877818 57.460363l-23.016728 43.194182 32.791273 36.352a46.312727 46.312727 0 0 1-1.256727 63.860364 45.451636 45.451636 0 0 1-32.395637 13.265454c-11.682909 0-22.853818-4.258909-31.464727-12.008727l-36.352-32.814545-43.217454 23.04c-18.455273 9.844364-37.794909 17.873455-57.437091 23.877818l-46.754909 14.289454-2.56 48.826182A46.336 46.336 0 0 1 512 930.909091a46.336 46.336 0 0 1-46.033455-44.218182l-2.56-48.826182-46.754909-14.289454a324.491636 324.491636 0 0 1-57.437091-23.877818l-43.217454-23.04-36.352 32.814545c-8.587636 7.749818-19.781818 12.032-31.464727 12.032-12.334545 0-23.831273-4.724364-32.395637-13.288727a46.312727 46.312727 0 0 1-1.256727-63.860364l32.791273-36.352-23.016728-43.217454a323.770182 323.770182 0 0 1-23.877818-57.437091l-14.289454-46.778182-48.826182-2.56A46.359273 46.359273 0 0 1 93.090909 512c0-24.529455 19.432727-44.730182 44.218182-46.033455l48.826182-2.56 14.289454-46.778181c6.004364-19.618909 14.033455-38.935273 23.877818-57.413819l23.016728-43.217454-32.791273-36.352a46.312727 46.312727 0 0 1 1.256727-63.860364 45.451636 45.451636 0 0 1 32.395637-13.288727c11.682909 0 22.877091 4.282182 31.464727 12.032l36.352 32.791273 43.217454-23.04a325.236364 325.236364 0 0 1 57.437091-23.854546l46.754909-14.289454 2.56-48.826182A46.359273 46.359273 0 0 1 512 93.090909c24.529455 0 44.730182 19.432727 46.033455 44.218182l2.56 48.826182 46.754909 14.289454c19.642182 6.004364 38.981818 14.033455 57.437091 23.877818l43.217454 23.016728 36.352-32.814546c8.610909-7.726545 19.781818-12.008727 31.464727-12.008727 12.334545 0 23.831273 4.724364 32.395637 13.265455a46.312727 46.312727 0 0 1 1.256727 63.860363l-32.791273 36.375273 23.016728 43.217454c9.844364 18.478545 17.873455 37.794909 23.877818 57.437091l14.289454 46.754909 48.826182 2.56c24.808727 1.303273 44.218182 21.504 44.218182 46.033455a46.336 46.336 0 0 1-44.218182 46.033455l-48.826182 2.56zM1000.727273 512c0-61.952-49.198545-112.546909-110.382546-115.758545a393.658182 393.658182 0 0 0-29.021091-69.841455c41.076364-45.544727 40.075636-116.154182-3.746909-159.976727a115.2 115.2 0 0 0-81.757091-33.745455 116.596364 116.596364 0 0 0-78.219636 29.998546 394.682182 394.682182 0 0 0-69.841455-29.021091C624.546909 72.448 573.952 23.272727 512 23.272727c-61.952 0-112.546909 49.198545-115.758545 110.382546a395.403636 395.403636 0 0 0-69.841455 29.021091 116.596364 116.596364 0 0 0-78.219636-30.021819 115.2 115.2 0 0 0-81.757091 33.745455c-43.822545 43.845818-44.8 114.455273-3.746909 160a395.403636 395.403636 0 0 0-29.021091 69.818182C72.471273 399.476364 23.272727 450.071273 23.272727 512c0 61.952 49.198545 112.570182 110.382546 115.758545a393.937455 393.937455 0 0 0 29.021091 69.818182c-41.053091 45.568-40.075636 116.177455 3.746909 160a115.2 115.2 0 0 0 81.757091 33.745455 116.596364 116.596364 0 0 0 78.219636-30.021818c22.132364 11.799273 45.474909 21.597091 69.841455 29.044363C399.453091 951.528727 450.048 1000.727273 512 1000.727273c61.952 0 112.546909-49.198545 115.758545-110.382546 24.389818-7.447273 47.709091-17.245091 69.841455-29.021091a116.596364 116.596364 0 0 0 78.219636 29.998546 115.2 115.2 0 0 0 81.757091-33.745455c43.822545-43.822545 44.8-114.432 3.746909-159.976727 11.776-22.109091 21.573818-45.451636 29.021091-69.841455C951.528727 624.570182 1000.727273 573.952 1000.727273 512z m-488.727273 151.272727a151.458909 151.458909 0 0 1-151.272727-151.272727c0-83.409455 67.863273-151.272727 151.272727-151.272727s151.272727 67.863273 151.272727 151.272727-67.863273 151.272727-151.272727 151.272727z m0-372.363636c-121.902545 0-221.090909 99.188364-221.090909 221.090909s99.188364 221.090909 221.090909 221.090909 221.090909-99.188364 221.090909-221.090909-99.188364-221.090909-221.090909-221.090909z" fill="#333333" p-id="2553"></path></svg>