<svg xmlns="http://www.w3.org/2000/svg" width="18.611" height="19.145" viewBox="0 0 18.611 19.145"><defs><style>.a{fill:#8a8a8a;}</style></defs><path class="a" d="M77.565,87.188a.913.913,0,0,1-.913-.913V76.227H92.438v3.533a5.906,5.906,0,0,1,1.251,1.093V75.6a.667.667,0,0,0-.063-.275L91.846,71.68a1.936,1.936,0,0,0-1.727-1.08H78.97a1.932,1.932,0,0,0-1.727,1.08l-1.781,3.645a.607.607,0,0,0-.063.275V86.274a2.168,2.168,0,0,0,2.165,2.165h6.653a6.053,6.053,0,0,1-.709-1.251Zm.8-14.957a.677.677,0,0,1,.6-.375H90.111a.677.677,0,0,1,.6.375l1.343,2.744H77.027ZM89.11,79.943a4.9,4.9,0,1,0,4.9,4.9A4.906,4.906,0,0,0,89.11,79.943Zm0,8.546a3.65,3.65,0,1,1,3.65-3.65A3.654,3.654,0,0,1,89.11,88.489Zm2.523-3.445a.625.625,0,0,1-.626.626H88.993a.625.625,0,0,1-.626-.626V82.687a.626.626,0,0,1,1.251,0v1.731h1.389A.625.625,0,0,1,91.633,85.044Zm-13.5-5.489V78.3h3.641v1.251Z" transform="translate(-75.4 -70.6)"/></svg>