<svg xmlns="http://www.w3.org/2000/svg" width="20" height="20" viewBox="0 0 20 20"><defs><style>.a{fill:#bebebe;}.b{fill:#fff;}</style></defs><g transform="translate(-560.359 -222)"><path class="a" d="M570.359,222a10,10,0,1,0,10,10,9.95,9.95,0,0,0-10-10Z"/><path class="b" d="M569.488,226.479a1.057,1.057,0,0,1,.827-.4,1.019,1.019,0,0,1,.985.475,1.461,1.461,0,0,1,.239.973c0,.081-.057.612-.08.759l-.317,4.025a2.454,2.454,0,0,1-.239,1.1.627.627,0,0,1-.636.4.6.6,0,0,1-.555-.4,2.785,2.785,0,0,1-.239-1.1l-.215-3.945a4.6,4.6,0,0,1-.081-.872,1.663,1.663,0,0,1,.311-1.018Z"/><path class="b" d="M571.231,237.6a1.132,1.132,0,0,1-.794.317,1.2,1.2,0,0,1-.872-.317,1.3,1.3,0,0,1-.4-.94,1.2,1.2,0,0,1,.317-.872,1.156,1.156,0,0,1,1.744,0,1.192,1.192,0,0,1,.316.872,1.32,1.32,0,0,1-.314.94Z"/></g></svg>