<?xml version="1.0" standalone="no"?><!DOCTYPE svg PUBLIC "-//W3C//DTD SVG 1.1//EN" "http://www.w3.org/Graphics/SVG/1.1/DTD/svg11.dtd"><svg t="1692103656385" class="icon" viewBox="0 0 1024 1024" version="1.1" xmlns="http://www.w3.org/2000/svg" p-id="13266" xmlns:xlink="http://www.w3.org/1999/xlink" width="200" height="200"><path d="M204.8 51.2h614.4c84.992 0 153.6 68.608 153.6 153.6v614.4c0 84.992-68.608 153.6-153.6 153.6H204.8c-84.992 0-153.6-68.608-153.6-153.6V204.8c0-84.992 68.608-153.6 153.6-153.6z" fill="#5A84FF" p-id="13267"></path><path d="M235.40224 401.45408l286.208-165.888 266.752 165.888-280.064 172.544-272.896-172.544z" fill="#D6E9FB" p-id="13268"></path><path d="M235.40224 520.23808l96.256-58.368 177.152 111.616 183.808-113.152 95.744 59.904-279.552 175.616-273.408-175.616z" fill="#FFFFFF" opacity=".7" p-id="13269"></path><path d="M235.40224 610.86208l66.56-47.616 207.36 132.096 211.456-132.096 67.584 47.616-279.552 177.152-273.408-177.152z" fill="#FFFFFF" opacity=".4" p-id="13270"></path></svg>