<svg xmlns="http://www.w3.org/2000/svg" width="18" height="18" viewBox="0 0 18 18"><defs><style>.a{fill:#464e54;}.b{fill:#fff;}</style></defs><g transform="translate(-56 -134)"><circle class="a" cx="9" cy="9" r="9" transform="translate(56 134)"/><path class="b" d="M101.538,95.481H97.024V90.91a.756.756,0,0,0-.743-.743.808.808,0,0,0-.8.743v4.514H90.91a.743.743,0,0,0,0,1.486h4.514v4.514a.743.743,0,1,0,1.486,0V96.91h4.514a.757.757,0,0,0,.743-.743A.617.617,0,0,0,101.538,95.481Z" transform="translate(-31.167 46.833)"/></g></svg>