<svg xmlns="http://www.w3.org/2000/svg" width="20" height="20" viewBox="0 0 20 20"><defs><style>.a{fill:#8a8a8a;}</style></defs><path class="a" d="M68.22,71.3H68.8v5.289H68.22Zm1.445,0h.579v5.289h-.579Zm1.445,0h.579v5.289h-.579Zm1.445,0h.579v5.289h-.579ZM74,71.3h.579v5.289H74Zm1.445,0h.579v5.289h-.579Zm1.445,0h.579v5.289h-.579Zm1.442,0h.579v5.289h-.579Zm1.445,0h.579v5.289H79.78Zm3.869,7.319a.64.64,0,0,0-.64.64v2.538a.868.868,0,0,1-.867.867H79.6a.64.64,0,0,0,0,1.28h2.538a2.15,2.15,0,0,0,2.147-2.147V79.254A.64.64,0,0,0,83.65,78.614ZM82.143,63.94H79.6a.64.64,0,1,0,0,1.28h2.538a.868.868,0,0,1,.867.867v2.538a.64.64,0,0,0,1.28,0V66.087A2.15,2.15,0,0,0,82.143,63.94Zm-13.167,0H66.437a2.15,2.15,0,0,0-2.147,2.147v2.538a.64.64,0,0,0,1.28,0V66.087a.868.868,0,0,1,.867-.867h2.538a.64.64,0,1,0,0-1.28Zm0,18.72H66.437a.868.868,0,0,1-.867-.867V79.254a.64.64,0,0,0-1.28,0v2.538a2.15,2.15,0,0,0,2.147,2.147h2.538a.64.64,0,1,0,0-1.28Z" transform="translate(-64.29 -63.94)"/></svg>