<?xml version="1.0" encoding="utf-8"?>
<!-- Generator: Adobe Illustrator 24.3.0, SVG Export Plug-In . SVG Version: 6.00 Build 0)  -->
<svg version="1.1" id="图层_1" xmlns="http://www.w3.org/2000/svg" xmlns:xlink="http://www.w3.org/1999/xlink" x="0px" y="0px"
	 viewBox="0 0 200 200" style="enable-background:new 0 0 200 200;" xml:space="preserve">
<style type="text/css">
	.st0{fill:#7E7E7F;}
</style>
<g id="组_12190" transform="translate(-2753.061 -1176.367)">
	<path id="路径_6070" class="st0" d="M2791.8,1229.8c-0.1,0.9,0.1,1.7,0.4,2.5c0.3,0.7,0.7,1.3,1.2,1.9c0.7,0.6,1.5,1.1,2.4,1.3
		c1,0.3,2,0.4,3,0.4c0.7,0,1.3-0.1,1.9-0.2c0.7-0.1,1.4-0.4,2-0.7c0.6-0.3,1.2-0.8,1.6-1.3c0.5-0.6,0.7-1.4,0.6-2.1
		c0-0.8-0.2-1.5-0.6-2.1c-0.5-0.6-1.1-1-1.9-1.3c-1-0.4-2.1-0.8-3.2-1c-1.3-0.3-2.7-0.6-4.4-1c-1.5-0.3-3-0.7-4.4-1.3
		c-1.3-0.5-2.6-1.2-3.7-2c-1.1-0.9-2-2-2.6-3.2c-0.7-1.6-1-3.3-0.9-5c-0.1-2.5,0.6-4.9,1.9-7c1.3-1.8,2.9-3.3,4.9-4.4
		c2.1-1.1,4.3-1.9,6.6-2.3c2.3-0.4,4.6-0.6,7-0.6c2.2,0,4.3,0.2,6.4,0.6c2,0.4,4,1.1,5.7,2.1c1.7,1,3,2.5,4,4.2
		c1,2.1,1.5,4.4,1.2,6.7h-12.5c0.2-1.3-0.2-2.6-1-3.7c-0.5-0.5-1.1-0.9-1.9-1.1c-0.7-0.2-1.5-0.4-2.3-0.4c-0.7,0-1.4,0.1-2.1,0.2
		c-0.7,0.1-1.4,0.3-2,0.6c-0.6,0.3-1.1,0.7-1.5,1.2c-0.4,0.6-0.6,1.2-0.6,1.9c0,0.7,0.3,1.4,0.8,1.9c0.6,0.5,1.3,0.9,2,1.2
		c1,0.4,2,0.6,3,0.9c1.1,0.2,2.3,0.5,3.6,0.9c1.9,0.5,3.7,1,5.2,1.5c1.4,0.5,2.7,1.2,3.9,2.1c1.1,0.9,1.9,2,2.4,3.3
		c0.6,1.6,0.9,3.3,0.8,5.1c0.1,2.8-0.6,5.5-2,7.8c-1.3,1.9-3,3.5-5.1,4.6c-2.2,1.1-4.5,1.9-6.9,2.2c-2.5,0.4-5,0.6-7.5,0.6
		c-2.5,0-4.9-0.2-7.3-0.8c-2-0.5-3.9-1.4-5.6-2.6c-1.5-1.2-2.8-2.8-3.6-4.6c-1-2.2-1.5-4.6-1.5-7H2791.8z M2846.9,1234.3
		c1.7,0,3.4-0.5,4.7-1.5c1.3-1,2.4-2.2,3.2-3.7c0.9-1.5,1.5-3.2,1.8-4.9c0.4-1.6,0.6-3.3,0.6-5c0-1-0.1-1.9-0.2-2.9
		c-0.1-1-0.5-1.9-1-2.7c-0.6-0.8-1.3-1.5-2.2-2c-1.2-0.6-2.5-0.9-3.8-0.8c-1.7,0-3.4,0.5-4.7,1.5c-1.3,1-2.4,2.3-3.2,3.8
		c-0.8,1.6-1.5,3.2-1.8,5c-0.4,1.6-0.6,3.3-0.6,4.9c-0.1,2,0.5,4,1.6,5.8C2842.6,1233.6,2844.7,1234.5,2846.9,1234.3L2846.9,1234.3z
		 M2830.9,1201.5h13.4l-1,4.9h0.2c1.4-1.9,3.2-3.5,5.3-4.6c2.3-1.1,4.8-1.6,7.3-1.5c2.4-0.1,4.7,0.4,6.8,1.5c1.8,1,3.4,2.4,4.7,4.1
		c1.2,1.7,2.2,3.7,2.7,5.8c0.6,2.3,0.9,4.6,0.9,6.9c0,3.2-0.5,6.3-1.4,9.3c-0.9,3-2.2,5.9-4.1,8.5c-1.8,2.5-4.1,4.6-6.8,6.1
		c-2.9,1.6-6.1,2.4-9.5,2.4c-2.5,0.1-5-0.4-7.3-1.5c-2.2-1.1-4-2.9-5-5.2h-0.2l-4,19.6h-13.8L2830.9,1201.5z M2906,1216.9
		c0.1-1.8-0.5-3.5-1.7-4.8c-1.2-1.1-2.8-1.7-4.5-1.6c-1.8-0.1-3.6,0.3-5.1,1.3c-1.4,0.9-2.5,2.1-3.2,3.5c-0.8,1.5-1.4,3.1-1.7,4.8
		c-0.3,1.7-0.5,3.4-0.5,5.1c-0.1,2.5,0.5,5,1.7,7.1c1.2,1.7,3.2,2.6,5.2,2.5c2,0.1,3.9-0.6,5.3-1.9c1.4-1.4,2.3-3.2,2.8-5.2h13.3
		c-0.5,2.7-1.5,5.4-3,7.8c-1.2,2.1-2.9,3.9-4.8,5.4c-1.9,1.4-4.1,2.5-6.4,3.1c-2.5,0.7-5.1,1-7.7,1c-2.7,0-5.5-0.4-8.1-1.1
		c-2.3-0.7-4.5-1.9-6.4-3.4c-1.8-1.5-3.3-3.5-4.2-5.7c-1.1-2.6-1.6-5.3-1.5-8.1c0-3.5,0.6-7,1.8-10.3c1.1-3.1,2.9-5.9,5.1-8.3
		c2.2-2.4,4.9-4.3,7.9-5.5c3.3-1.4,6.8-2.1,10.4-2c2.5,0,5,0.3,7.4,1c2.2,0.6,4.2,1.6,6,3c1.7,1.4,3.1,3.1,4.1,5.2
		c1,2.3,1.5,4.8,1.5,7.3L2906,1216.9z"/>
	<path id="icon" class="st0" d="M2905.8,1301.7L2905.8,1301.7z M2793.6,1312.5l-6.4-7.8l46.8-30.2l39.8,22l39.1-29l7,7.4l-45.2,33.5
		l-40.2-22.3L2793.6,1312.5z M2893.8,1258l41.6-0.8l-9.4,36"/>
	<g id="icon-2" transform="translate(2712.203 1111.752)">
		<path id="路径_6064" class="st0" d="M228.8,218.4l-4.9-0.2c0,0-1.7-4.5-2.4-5.6l3.5-3.1c1.9-2,1.9-5.1,0-7.1l-4.7-4.7
			c-2-1.9-5.1-1.9-7.1,0l-3.8,3.8c-1.8-1-3.7-1.8-5.6-2.4v-5.2c0-2.6-2.1-4.7-4.7-4.7h-6.6c-2.6,0-4.7,2.1-4.7,4.7v5.2
			c-2,0.6-3.9,1.4-5.6,2.4l-3.3-3.8c-2-1.9-5.1-1.9-7.1,0l-4.7,4.7c-1.9,2-1.9,5.1,0,7.1l3.8,3.8c-1,1.8-1.8,3.7-2.4,5.6h-5.2
			c-2.6,0-4.7,2.1-4.7,4.7v6.6c0,2.6,2.1,4.7,4.7,4.7h5.2c0.6,2,1.4,3.9,2.4,5.6l-3.8,3.8c-1.9,2-1.9,5.1,0,7.1l4.7,4.7
			c2,1.9,5.1,1.9,7.1,0l3.8-3.8c1.8,1,3.7,1.8,5.6,2.4v5.2c0,2.6,2.1,4.7,4.7,4.7h6.6c2.6,0,4.7-2.1,4.7-4.7v-5.2
			c2-0.6,3.9-1.4,5.6-2.4l3.8,3.8c2,1.9,5.1,1.9,7.1,0l4.7-4.7c1.9-2,1.9-5.1,0-7.1l-3.8-3.8c1-1.8,1.8-3.7,2.4-5.6h5.2
			c2.6,0,4.7-2.1,4.7-4.7v0v-6.6C234,220.7,231.7,218.4,228.8,218.4z M196.3,240.1c-7.3,0-13.2-5.9-13.2-13.2s5.9-13.2,13.2-13.2
			c7.3,0,13.2,5.9,13.2,13.2v0C209.4,234.1,203.5,240,196.3,240.1L196.3,240.1z"/>
		<path id="路径_6065" class="st0" d="M135.5,253.6H65.1c-9.3,0.3-17.1-6.9-17.4-16.2c0-0.1,0-0.2,0-0.3V81.2
			c0.4-9.3,8.1-16.6,17.4-16.6h141.4c9.3-0.3,17.1,6.9,17.4,16.2c0,0.1,0,0.2,0,0.3v50.3c-0.1,3.7-3.2,6.5-6.9,6.4
			c-3.5-0.1-6.2-2.9-6.4-6.4V81.2c0-2.2-1.8-4-4-4c-0.1,0-0.1,0-0.2,0H65.1c-2.2,0.1-4,1.8-4.2,4v155.9c0,2.2,1.8,4,4,4
			c0.1,0,0.1,0,0.2,0h70.4c3.5-0.2,6.4,2.5,6.6,5.9c0.2,3.5-2.5,6.4-5.9,6.6C136,253.6,135.7,253.6,135.5,253.6z"/>
	</g>
</g>
</svg>
