<?xml version="1.0" encoding="utf-8"?>
<!-- Generator: Adobe Illustrator 24.3.0, SVG Export Plug-In . SVG Version: 6.00 Build 0)  -->
<svg version="1.1" id="图层_1" xmlns="http://www.w3.org/2000/svg" xmlns:xlink="http://www.w3.org/1999/xlink" x="0px" y="0px"
	 viewBox="0 0 200 200" style="enable-background:new 0 0 200 200;" xml:space="preserve">
<style type="text/css">
	.st0{fill:none;}
	.st1{fill:#7E7E7F;}
</style>
<g id="组_12193" transform="translate(-2817.604 -1040.003)">
	<g id="矩形_24994" transform="translate(2817.604 1040.003)">
		<g>
			<path class="st0" d="M30.7,20.8h138.6c16.4,0,29.7,13.3,29.7,29.7v99c0,16.4-13.3,29.7-29.7,29.7H30.7
				C14.3,179.2,1,165.9,1,149.5v-99C1,34.1,14.3,20.8,30.7,20.8z"/>
		</g>
		<g>
			<path class="st1" d="M169.3,179.2H30.7C14.3,179.2,1,165.9,1,149.5v-99c0-16.4,13.3-29.7,29.7-29.7h138.6
				c16.4,0,29.7,13.3,29.7,29.7v99C199,165.9,185.7,179.2,169.3,179.2z M30.7,32.7c-9.8,0-17.8,8-17.8,17.8v99
				c0,9.8,8,17.8,17.8,17.8h138.6c9.8,0,17.8-8,17.8-17.8v-99c0-9.8-8-17.8-17.8-17.8H30.7z"/>
		</g>
	</g>
	<g id="组_12197" transform="translate(2819.613 1042.733)">
		<g id="icon">
			<path class="st1" d="M24.2,116.8h11.2v32.7H24.2V116.8z M63.7,101h11.2v48.4H63.7V101z M103.2,116.8h11.2v32.7h-11.2V116.8z
				 M142.6,91.5h11.2v58h-11.2V91.5z M25.6,102.8l-6.7-8.1l48.9-31.6l41.5,23l40.8-30.2l7.3,7.7l-47.1,34.9l-42-23.3L25.6,102.8z
				 M130.2,45.9l43.5-0.8l-9.8,37.6"/>
		</g>
	</g>
</g>
</svg>
