<?xml version="1.0" standalone="no"?><!DOCTYPE svg PUBLIC "-//W3C//DTD SVG 1.1//EN" "http://www.w3.org/Graphics/SVG/1.1/DTD/svg11.dtd"><svg t="1692346408991" class="icon" viewBox="0 0 1024 1024" version="1.1" xmlns="http://www.w3.org/2000/svg" p-id="13502" xmlns:xlink="http://www.w3.org/1999/xlink" width="200" height="200"><path d="M182.272 794.624h199.68c12.288 0 24.576-4.608 33.28-13.824l325.632-326.144 133.632-131.072c18.432-18.432 18.432-48.128 0.512-66.56l-0.512-0.512-199.68-202.24c-18.432-18.432-48.128-18.432-66.56-0.512l-0.512 0.512-132.608 133.12L148.48 513.536c-8.704 8.704-13.824 20.992-13.824 33.28v199.68c0.512 27.136 21.504 48.128 47.616 48.128z m459.776-640l133.12 133.12-67.072 67.072-133.12-133.12 67.072-67.072z m-412.672 412.672l279.04-279.04 133.12 133.12-279.04 279.04h-133.12v-133.12z m706.56 321.536H88.064c-26.112 0-47.104 20.992-47.104 47.104s20.992 47.104 47.104 47.104h847.872c26.112 0 47.104-20.992 47.104-47.104s-20.992-47.104-47.104-47.104z" fill="#707070" p-id="13503"></path></svg>