<?xml version="1.0" encoding="utf-8"?>
<!-- Generator: Adobe Illustrator 24.3.0, SVG Export Plug-In . SVG Version: 6.00 Build 0)  -->
<svg version="1.1" id="图层_1" xmlns="http://www.w3.org/2000/svg" xmlns:xlink="http://www.w3.org/1999/xlink" x="0px" y="0px"
	 viewBox="0 0 200 200" style="enable-background:new 0 0 200 200;" xml:space="preserve">
<style type="text/css">
	.st0{fill:#7E7E7F;}
</style>
<path id="工位看板" class="st0" d="M188.8,179H11.2C5,179,0,174,0,167.8c0,0,0,0,0,0V11.2C0,5,5,0,11.2,0h0h177.6
	C195,0,200,5,200,11.2v0v156.6C200,174,195,179,188.8,179C188.8,179,188.8,179,188.8,179z M186.6,16.8c0-1.9-1.5-3.4-3.4-3.4H16.8
	c-1.9,0-3.4,1.5-3.4,3.4v145.4c0,1.9,1.5,3.4,3.4,3.4h166.4c1.9,0,3.4-1.5,3.4-3.4L186.6,16.8z M155,110.1l-29-29l-28.8,28.8
	c-3,2.6-7.5,2.6-10.6,0L68.2,91.5l-14.3,14.3c-2.6,2.6-6.9,2.6-9.5,0s-2.6-6.9,0-9.5l19-19c2.8-2.6,7.1-2.5,9.8,0.1L92,96.2
	l29.3-29.3c2.6-2.6,6.9-2.6,9.5,0c0,0,0,0,0,0l0,0l0.2,0.2l33.5,33.5c2.6,2.6,2.6,6.9,0,9.5S157.7,112.8,155,110.1L155,110.1z
	 M17.2,186.6h165.5c3.7,0,6.7,3,6.7,6.7c0,3.7-3,6.7-6.7,6.7H17.2c-3.7,0-6.7-3-6.7-6.7C10.5,189.6,13.5,186.6,17.2,186.6z"/>
</svg>
