<svg xmlns="http://www.w3.org/2000/svg" width="20" height="20" viewBox="0 0 20 20">
  <path id="icon" d="M17.5,5h1.667A.834.834,0,0,1,20,5.833V10a.834.834,0,0,1-.833.833H17.5V20H15.833V10.833H14.167A.834.834,0,0,1,13.333,10V5.833A.834.834,0,0,1,14.167,5h1.667V0H17.5Zm0,1.667H15v2.5h3.333v-2.5H17.5Zm-6.667,4.167H12.5a.834.834,0,0,1,.833.833v4.167a.834.834,0,0,1-.833.833H10.833V20H9.167V16.667H7.5a.834.834,0,0,1-.833-.833V11.667a.834.834,0,0,1,.833-.833H9.167V0h1.667V10.833Zm0,1.667h-2.5V15h3.333V12.5h-.833ZM4.167,3.333H5.833a.834.834,0,0,1,.833.833V8.333a.834.834,0,0,1-.833.833H4.167V20H2.5V9.167H.833A.834.834,0,0,1,0,8.333V4.167a.834.834,0,0,1,.833-.833H2.5V0H4.167V3.333ZM4.167,5h-2.5V7.5H5V5H4.167Z" fill="#8a8a8a"/>
</svg>
