<svg xmlns="http://www.w3.org/2000/svg" width="18.649" height="20.334" viewBox="0 0 18.649 20.334"><defs><style>.a{fill:#7e7e7f;stroke:#7e7e7f;stroke-width:0.2px;}</style></defs><path class="a" d="M98.013,51.456A2.013,2.013,0,0,1,96,49.443V34.013A2.013,2.013,0,0,1,98.013,32l9.833.147h.338a.916.916,0,0,1,.621.239l3.91,3.91a1.342,1.342,0,0,1,.393.949V43.4a.671.671,0,0,1-1.342.011V38.373h-3.019a2.013,2.013,0,0,1-2.013-2.013V33.342H98.013a.671.671,0,0,0-.671.66V49.443a.671.671,0,0,0,.66.671h7.726a.671.671,0,0,1,.011,1.342Zm10.063-17.893v2.8a.671.671,0,0,0,.66.671h2.81Zm-7.4,7.495h6.751a.65.65,0,0,1,.65.65v.042a.65.65,0,0,1-.65.65h-6.751a.65.65,0,0,1-.65-.65v-.042A.65.65,0,0,1,100.675,41.057Zm10.6,3.673.007,0,2.817,1.578.009.005a.684.684,0,0,1,.344.572v2.939a.683.683,0,0,1-.33.571l-.008,0-.008,0-2.818,1.622-.01.006a.721.721,0,0,1-.7,0l-.008,0-2.817-1.622-.009-.005a.683.683,0,0,1-.337-.568V46.9a.683.683,0,0,1,.337-.575l.009-.005.009-.005,2.816-1.578A.721.721,0,0,1,111.272,44.73Zm-.345,1.363-2.18,1.219v2.12l2.18,1.253,2.18-1.253v-2.12l-2.18-1.219Zm-6.856-9.061a.65.65,0,0,1,.65.65v.042a.65.65,0,0,1-.65.65h-3.4a.65.65,0,0,1-.65-.65v-.042a.65.65,0,0,1,.65-.65Z" transform="translate(-95.9 -31.9)"/></svg>