<?xml version="1.0" standalone="no"?><!DOCTYPE svg PUBLIC "-//W3C//DTD SVG 1.1//EN" "http://www.w3.org/Graphics/SVG/1.1/DTD/svg11.dtd"><svg t="1716882975209" class="icon" viewBox="0 0 1024 1024" version="1.1" xmlns="http://www.w3.org/2000/svg" p-id="5523" width="256" height="256" xmlns:xlink="http://www.w3.org/1999/xlink"><path d="M163.712 442.88c50.752-172.928 161.92-296.32 365.184-313.856 14.08-1.216 33.6-0.128 49.6-3.136 13.76-2.688 30.592-12.544 46.464-19.072 64.384-26.304 206.72-72.512 278.592-15.872 62.336 49.28 50.88 169.152 12.352 247.36 30.72 61.76 53.504 147.776 40.256 244.096-180.608 7.36-391.04 0.96-566.528 3.2 5.888 92.992 64.64 164.224 151.68 174.272 85.12 9.856 144-37.952 182.656-91.904h216.64c-56.32 160.896-199.36 285.696-420.864 269.504-50.432-3.712-89.664-18.304-133.12-34.944-72.64 39.552-233.28 98.24-297.216 15.872-48.512-62.528-17.28-176.256 9.28-250.432 53.888-150.208 156.544-299.008 256.96-383.616 0.576-2.56 3.072-3.2 3.072-6.336-79.36 40.32-132.8 107.072-195.008 164.864z m761.472-234.56c-3.008-107.904-142.848-97.28-216.704-53.888 82.496 32.832 142.72 88.448 191.936 155.264 10.688-33.92 25.856-62.016 24.768-101.376z m-535.552 263.04h343.68c-10.048-220.416-332.864-202.624-343.68 0zM135.808 858.24c17.28 97.6 154.624 69.12 216.704 25.344-81.472-45.504-132.288-122.368-173.376-209.28-19.008 47.04-54.656 119.424-43.328 183.936z" fill="#8a8a8a" p-id="5524"></path></svg>