<svg xmlns="http://www.w3.org/2000/svg" width="18" height="17.732" viewBox="0 0 18 17.732"><defs><style>.a{fill:#8a8a8a;}</style></defs><g transform="translate(-130.816 -135.526)"><path class="a" d="M147.394,135.526h-11.04a1.423,1.423,0,0,0-1.424,1.422v1.145h-2.692a1.423,1.423,0,0,0-1.422,1.422v12.321a1.423,1.423,0,0,0,1.422,1.422h11.044a1.423,1.423,0,0,0,1.422-1.422v-1.144h2.69a1.423,1.423,0,0,0,1.422-1.422V136.948a1.423,1.423,0,0,0-1.422-1.422Zm-4.152,13.7V151.8H132.275v-12.24h10.966Zm4.112,0H144.7v-9.715a1.423,1.423,0,0,0-1.422-1.422h-6.89v-1.105h10.966Z" transform="translate(0 0)"/><path class="a" d="M237.568,413.44h7.19v1.452h-7.19Zm0,6.238h7.19v1.452h-7.19Zm0-3.118h4.073v1.452h-4.073Z" transform="translate(-104.211 -271.303)"/></g></svg>