<svg xmlns="http://www.w3.org/2000/svg" width="17.344" height="18" viewBox="0 0 17.344 18"><defs><style>.a{fill:#8a8a8a;}</style></defs><path class="a" d="M157,141.031a.844.844,0,0,1,.844.844v3.281A.844.844,0,0,1,157,146h-8.437a.844.844,0,0,1-.844-.844v-3.281a.844.844,0,0,1,.844-.844Zm1.5-11.391h.014a.844.844,0,0,1,.83.844v6.53a.844.844,0,0,1-.844.83h-4.919l-2.376,1.927a.844.844,0,0,1-1.063,0l-2.376-1.927h-4.079v4.828h2.5a.844.844,0,0,1-.014,1.687H142.83a.844.844,0,0,1-.83-.844v-6.53a.844.844,0,0,1,.844-.83h4.936l2.362-1.915a.844.844,0,0,1,1.063,0l2.362,1.915h4.089v-4.828h-2.5a.844.844,0,0,1,.014-1.687Zm-2.344,13.078h-6.75v1.594h6.75Zm-5.483-6.736-1.262,1.023,1.262,1.023,1.262-1.023ZM152.781,128a.844.844,0,0,1,.844.844v3.281a.844.844,0,0,1-.844.844h-8.437a.844.844,0,0,1-.844-.844v-3.281a.844.844,0,0,1,.844-.844Zm-.844,1.688h-6.75v1.594h6.75Z" transform="translate(-142 -128)"/></svg>