<svg xmlns="http://www.w3.org/2000/svg" width="17.999" height="18" viewBox="0 0 17.999 18"><defs><style>.a{fill:#8a8a8a;}</style></defs><g transform="translate(-98.56 -75.52)"><path class="a" d="M106.139,93.52H101.3A2.731,2.731,0,0,1,98.56,90.8V78.241A2.731,2.731,0,0,1,101.3,75.52h10.631a2.731,2.731,0,0,1,2.737,2.721v4.4a.632.632,0,0,1-1.263,0v-4.4a1.471,1.471,0,0,0-1.474-1.465H101.3a1.471,1.471,0,0,0-1.474,1.465V90.8a1.471,1.471,0,0,0,1.474,1.465h4.842a.628.628,0,1,1,0,1.256Z"/><path class="a" d="M277.309,264.021a4.737,4.737,0,1,1,4.737-4.737A4.742,4.742,0,0,1,277.309,264.021Zm0-8.21a3.474,3.474,0,1,0,3.474,3.474A3.477,3.477,0,0,0,277.309,255.81Zm-1.368-4.947h-7.789a.632.632,0,0,1,0-1.263h7.789a.632.632,0,0,1,0,1.263Zm-4.631,3.158h-3.158a.632.632,0,0,1,0-1.263h3.158a.632.632,0,1,1,0,1.263Zm0,3.158h-3.158a.632.632,0,1,1,0-1.263h3.158a.632.632,0,1,1,0,1.263Z" transform="translate(-165.486 -170.606)"/><path class="a" d="M661.528,649.41a.629.629,0,0,1-.446-.185l-2.233-2.233a.631.631,0,0,1,.893-.893l2.233,2.233a.632.632,0,0,1-.446,1.078Z" transform="translate(-548.589 -558.753)"/><path class="a" d="M659.294,649.41a.632.632,0,0,1-.446-1.078l2.233-2.233a.631.631,0,0,1,.893.893l-2.233,2.233A.629.629,0,0,1,659.294,649.41Z" transform="translate(-548.588 -558.753)"/></g></svg>