<?xml version="1.0" encoding="utf-8"?>
<!-- Generator: Adobe Illustrator 24.3.0, SVG Export Plug-In . SVG Version: 6.00 Build 0)  -->
<svg version="1.1" id="图层_1" xmlns="http://www.w3.org/2000/svg" xmlns:xlink="http://www.w3.org/1999/xlink" x="0px" y="0px"
	 viewBox="0 0 200 200" style="enable-background:new 0 0 200 200;" xml:space="preserve">
<style type="text/css">
	.st0{fill:none;}
	.st1{fill:#7E7E7F;}
</style>
<g id="角色工位权限" transform="translate(-2888 -1040)">
	<g id="矩形_24994" transform="translate(2888 1040)">
		<g>
			<path class="st0" d="M30,0h140c16.6,0,30,13.4,30,30v140c0,16.6-13.4,30-30,30H30c-16.6,0-30-13.4-30-30V30C0,13.4,13.4,0,30,0z"
				/>
		</g>
		<g>
			<path class="st1" d="M170,200H30c-16.5,0-30-13.5-30-30V30C0,13.5,13.5,0,30,0h140c16.5,0,30,13.5,30,30v140
				C200,186.5,186.5,200,170,200z M30,12c-9.9,0-18,8.1-18,18v140c0,9.9,8.1,18,18,18h140c9.9,0,18-8.1,18-18V30c0-9.9-8.1-18-18-18
				H30z"/>
		</g>
	</g>
	<g id="icon" transform="translate(2737.3 903.9)">
		<g id="路径_6061">
			<path class="st1" d="M244.3,243c-21.3,0-38.5-17.2-38.5-38.5c0-21.3,17.2-38.5,38.5-38.5c21.3,0,38.5,17.2,38.5,38.5
				c0,10.2-4.1,20-11.3,27.2C264.3,239,254.5,243.1,244.3,243z M244.3,177.8c-14.8,0-26.8,12-26.8,26.8s12,26.8,26.8,26.8
				s26.8-12,26.8-26.8l0,0C271.1,189.8,259.1,177.8,244.3,177.8z M290.5,279.1c-11.5,0-20.7-9.3-20.7-20.7
				c0-11.5,9.3-20.7,20.7-20.7c11.5,0,20.7,9.3,20.7,20.7c0,5.5-2.2,10.8-6.1,14.7C301.2,276.9,296,279.1,290.5,279.1L290.5,279.1z
				 M290.5,249.3c-5,0-9.1,4.1-9.1,9.1c0,5,4.1,9.1,9.1,9.1c5,0,9.1-4.1,9.1-9.1c0-2.4-1-4.7-2.7-6.4
				C295.2,250.2,292.9,249.3,290.5,249.3L290.5,249.3z"/>
		</g>
		<g id="路径_6062">
			<path class="st1" d="M186.5,300.9c-3.2,0-5.8-2.6-5.8-5.8c0,0,0,0,0,0c0-35.1,28.4-63.5,63.4-63.6c0.1,0,0.1,0,0.2,0
				c3.2,0,5.8,2.6,5.9,5.8c0,3.2-2.6,5.8-5.8,5.9c0,0,0,0-0.1,0c-28.7,0-51.9,23.3-52,52C192.4,298.3,189.8,300.9,186.5,300.9
				C186.6,300.9,186.5,300.9,186.5,300.9z M272.7,295.8l-7.1-7.1c-2.3-2.3-2.3-6,0-8.3c2.3-2.3,6-2.3,8.3,0l7.1,7.1
				c2.3,2.3,2.3,6,0,8.3C278.7,298.1,275,298.1,272.7,295.8L272.7,295.8z"/>
		</g>
		<g id="路径_6063">
			<path class="st1" d="M281.4,277.6l-22.7,22.7c-2.3,2.3-6,2.3-8.3,0s-2.3-6,0-8.3l22.7-22.7c2.3-2.3,6-2.3,8.3,0
				S283.6,275.3,281.4,277.6z"/>
		</g>
	</g>
</g>
</svg>
