<svg xmlns="http://www.w3.org/2000/svg" width="18" height="18.001" viewBox="0 0 18 18.001"><defs><style>.a{fill:#8a8a8a;}</style></defs><path class="a" d="M49.833,58.891H47.776a1.267,1.267,0,0,1-1.3-1.3V56.125c-.115-.059-.229-.118-.338-.18l-1.3.81a1.317,1.317,0,0,1-1.719-.472l-.029-.046-2.042-3.574a1.28,1.28,0,0,1-.157-1.112,1.21,1.21,0,0,1,.678-.716l1.213-.758v-.365l-1.213-.758a1.208,1.208,0,0,1-.678-.718,1.293,1.293,0,0,1,.157-1.112l2.034-3.56a1.18,1.18,0,0,1,.741-.581,1.336,1.336,0,0,1,1.1.2l1.194.747c.113-.073.233-.143.361-.21V42.195a1.267,1.267,0,0,1,1.3-1.3h4.1a1.267,1.267,0,0,1,1.3,1.3v1.469c.115.059.227.118.338.18l1.3-.81a1.317,1.317,0,0,1,1.719.472l.029.046L58.6,47.125a1.28,1.28,0,0,1,.157,1.112,1.21,1.21,0,0,1-.678.716l-1.213.758V49.9a.783.783,0,0,1-1.566,0V48.844L57.13,47.7l-1.8-3.152-1.824,1.14-.42-.281a10.931,10.931,0,0,0-1.045-.567l-.428-.216V42.462H48.045v2.4l-.592.149a2.909,2.909,0,0,0-.745.414l-.56.374-1.866-1.169L42.525,47.7l1.826,1.142v2.1l-1.826,1.142,1.8,3.152,1.824-1.14.42.281a10.93,10.93,0,0,0,1.045.567l.432.216v2.166h1.786a.782.782,0,0,1,0,1.564Zm0-10.561a1.564,1.564,0,1,1-1.564,1.564A1.565,1.565,0,0,1,49.83,48.33m0-1.566a3.129,3.129,0,1,0,3.129,3.129A3.129,3.129,0,0,0,49.83,46.764Zm3.524,10.57h4.695a.783.783,0,1,1,0,1.566H53.354a.783.783,0,1,1,0-1.566Zm0-2.737h4.695a.783.783,0,1,1,0,1.566H53.354a.783.783,0,0,1,0-1.566Zm0-2.739h4.695a.783.783,0,1,1,0,1.566H53.354a.783.783,0,1,1,0-1.566Z" transform="translate(-40.832 -40.9)"/></svg>